<?xml version="1.0" encoding="UTF-8"?>
<svg id="uuid-e724764c-c239-4f00-b77f-7a7cb46f16e7" data-name="10" xmlns="http://www.w3.org/2000/svg" viewBox="0 0 512 338.7">
  <defs>
    <style>
      .uuid-d1eb6b95-61eb-4217-86fc-51abe2b99695 {
        isolation: isolate;
        opacity: .79;
      }

      .uuid-d1eb6b95-61eb-4217-86fc-51abe2b99695, .uuid-146fa699-e243-4caf-9f43-adc5097c5f8a {
        fill: #fff;
        stroke-width: 0px;
      }
    </style>
  </defs>
  <path class="uuid-d1eb6b95-61eb-4217-86fc-51abe2b99695" d="M309.52,211.09s-3.2-14.1-37.4-5.9c-34.1,8.3-30.6,22.3-30.6,22.3,2.71,11.04,5.8,22.71,9.16,34.65-.02-.07-.04-.15-.06-.22,6.66-1.2,13.36-2.28,20-3.22,4.2-.6,12.4-1.9,12.5-2l.6,3.3c-.1,0-8.3,1.4-12.6,2-6.07.87-13.47,2.18-19.31,3.2-.1.02-.25.05-.25.05t0,0c1.42,4.99,2.89,10.03,4.4,15.08,10.08-1.64,20.16-3.24,30.16-4.73l.5,3.3-29.67,4.7c4.29,14.21,8.89,28.49,13.67,42.3h60c-4.8-38.1-12.7-80.1-21.1-114.8ZM260.62,266.99l23.4-3.8.5,3.3-23.4,3.8-.5-3.3ZM262.02,276.59l-.5-3.3,23.4-3.8.5,3.3-23.4,3.8Z"/>
  <path class="uuid-146fa699-e243-4caf-9f43-adc5097c5f8a" d="M385.4,163.91c-.44-2.22-.72-4.47-.78-6.72,0-3.7.4-7.3,1.3-10.8l.6-2.4-4.7-1.2-.6,2.4c-1,4-1.5,8-1.4,12.1.04,1.63.17,3.26.4,4.89l-14.3-1.49c-2.1-.6-4.4.1-5.9,1.8-1.4,1.7-1.8,4-.9,6.1-.4.4-1.7,1.9-1.8,4.3-.1,2.3,1,4,1.3,4.4-1.2,1.5-1.5,3.6-.7,5.3.9,2,3.1,3.2,5.4,2.9l5.4.6c-3.2,21-8.7,28.1-10.2,28.9-3.5,1.4-8.1-.4-16.7-3.9-8.5-3.5-20.1-8.3-36.2-10.8-8.3-1.3-16.8-1.8-25.3-1.6-1.1,0-2-.7-2.3-1.7l-1.7-6.3c-.3-1.3.4-2.6,1.7-2.9l30.9-7.5c16.2-3.9,27-19.4,27.6-37.3,0-.7.3-1.3.8-1.7,1.8-1.5,3.6-3.1,5.3-4.7,11-10.3,20.3-22.2,27.6-35.4,1.4-2.5.9-5.7-1.3-7.5-3-2.5-7.3-1.6-9.1,1.6-5.8,10.5-12.9,20-21.3,28.5-.4.4-.8.8-1.2,1.2-.2.2-.8.8-1.4,1.4-.7.7-1.9.4-2.3-.5-.4-1.1-.8-2.3-1-2.8-1.4-3.3-3.1-6.4-5.2-9.2-.5-.7-.6-1.7-.2-2.5.8-1.5,1.6-3,2.3-4.5,8.1-16.3,13.8-33.8,16.7-51.9.6-3.9-1.7-7.8-5.6-8.8-4.4-1.1-8.8,1.8-9.5,6.2-2.7,16.7-7.8,32.8-15.3,47.8-.6,1.2-1.9,1.6-3,1-2.9-1.5-6-2.6-9.2-3.3-1.1-.2-1.9-1.3-1.8-2.5.5-6.7.6-13.8.6-22.4.1-18.5-2.6-37-8.1-54.9-1.4-4.6-6.7-6.9-11.2-4.3-3.1,1.8-4.4,5.6-3.3,9,5,16.3,7.5,33.2,7.4,50.1-.1,9.8-.1,17.3-.9,24.1-.1,1-.8,1.8-1.8,2l-77.4,18.8c-2.1.5-4.2,1.2-6.1,2.1-.9.4-1.9.3-2.6-.4-4.9-4.5-9.7-9.8-15.4-16.4-11.2-12.8-20.3-27.3-27.1-43-1.8-4.1-6.7-5.8-10.7-3.7-3.5,1.9-4.8,6.3-3.2,10,7.4,17.1,17.3,32.8,29.4,46.7,5.5,6.3,10.2,11.5,14.9,16.1.8.8.9,2.1.3,3-1.9,2.7-3.4,5.7-4.5,8.9-.4,1.2-1.8,1.8-3,1.3l-.1-.1c-15.4-6.5-29.7-15.3-42.6-26.1-3-2.5-7.6-2.6-10.5.2-3.3,3.2-3,8.4.4,11.3,14.1,11.9,29.8,21.6,46.7,28.7,1.7.7,3.5,1.4,5.2,2.1.8.3,1.4,1.1,1.5,2,.2,2.4.6,4.7,1.2,7.1.1.6.3,1.2.5,1.7.4,1.3.8,2.5,1.2,3.7.4,1.1-.5,2.4-1.7,2.3-2.6-.2-5.3-.4-7.9-.7-10.4-1.2-20.5-3.7-30.4-7.4-3.2-1.2-6.7.5-7.7,3.8-1,3,.9,6.3,3.8,7.5,14.1,5.2,28.8,8.2,43.9,8.8,2,.1,3.9.1,5.9.1h1.5c.7,0,1.3.3,1.7.8,9.2,10,22.4,14.9,35.3,11.7l31-7.5c1.2-.3,2.5.4,2.8,1.6l1.7,6.4c.3,1.2-.4,2.4-1.5,2.8-33.1,10.6-59.4,27.3-76.1,48.7-5.7,7.2-10.5,15-7.3,22.7,2.5,6.2,8.5,11.4,28.7,11.4,10.2,0,24.1-1.3,43-4.6,0,0,.14-.03.31-.05,12.2-2,24.39-3.95,36.49-5.75l.5,3.3-40.13,6.36c-.67,1-1.33,2.04-1.97,3.14-3.9,6.5-6,11.8-6.8,15.8-1.5,7.3-2.6,14.6-3.3,21.8h17c1.4-11,4.1-20.8,8.6-28.5,1.3-2.2,2.7-4.1,4.2-5.8,1.6-1.4,4.2-.7,4.8,1.4,3.4,11.1,7.1,22.1,10.8,32.9h40.5c-2-15-4.2-30-6.5-44.3-.4-2.2,1.8-4.1,4-3.3,2.3.9,4.6,2,6.8,3.4,13.2,8.3,24.6,25,33.4,44.1h20.1c-8.7-21.9-22.7-46-43.9-59.3-7.2-4.5-14.6-7.2-22.2-7.9-1.3-.1-2.3-1-2.6-2.3-2-8-4-15.9-5.9-23.9-1.2-4.8-2.4-9.5-3.5-14.3-.4-1.6,1-3.1,2.6-2.9.2,0,.4.1.6.1,14.3,2.2,24.5,6.5,32.7,9.9,7.1,2.9,13.5,5.6,20,5.6,2.7,0,5.4-.5,8.2-1.6,12.4-4.9,17.9-25.8,20.3-44,1.6-1.3,2.8-3.2,3-5.5l.9-8.8c.39-2.79-.83-5.44-2.92-7.08ZM279.72,114.49c2.1-.5,4.2.8,4.7,2.9s-.8,4.2-2.9,4.7-4.2-.8-4.7-2.9.8-4.2,2.9-4.7ZM203.42,141.59c-2.1.5-4.2-.8-4.7-2.9s.8-4.2,2.9-4.7,4.2.8,4.7,2.9-.8,4.2-2.9,4.7ZM243.32,138.19c-1.3.7-2.8,1-4.3,1-2.9,0-5.8-1.1-8.1-3.2l2.2-2.5c2.5,2.3,6,3,8.8,1.7s3.9-4,4.2-4.8l3.2,1c-.4,1.1-1.9,5-6,6.8ZM251.57,265.24s0,0,0,0c-44.43,7.93-56.02,4.76-58.74,3.36.4-1.1,1.6-3.3,4.8-7.2,13.43-17.1,32.08-28.64,49.79-36.35,1.78-.78,3.83.22,4.31,2.11l8.39,33.15c3.51-.57,7.02-1.11,10.51-1.61,4.2-.6,12.4-1.9,12.5-2l.6,3.3c-.1,0-8.3,1.4-12.6,2-5.97.85-13.22,2.14-19.01,3.14-.18.03-.37.07-.54.1ZM260.62,266.99l23.4-3.8.5,3.3-23.4,3.8-.5-3.3ZM262.02,276.59l-.5-3.3,23.4-3.8.5,3.3-23.4,3.8Z"/>
</svg>