<?xml version="1.0" encoding="UTF-8"?>
<svg id="uuid-6e441f42-b926-41dd-bf35-5ee193c444b4" data-name="13" xmlns="http://www.w3.org/2000/svg" viewBox="0 0 512 338.7">
  <defs>
    <style>
      .uuid-aaa9eb18-c68b-47f6-b6c0-ba3d36896ce6 {
        isolation: isolate;
        opacity: .79;
      }

      .uuid-aaa9eb18-c68b-47f6-b6c0-ba3d36896ce6, .uuid-8bb6991f-effd-4dd2-8d94-2b2e3b67ab91, .uuid-238b2715-da39-40d1-9a97-ed4f9f5e5d78, .uuid-104effb7-e8dc-4d31-92b7-b3e62c3cd2ad {
        stroke-width: 0px;
      }

      .uuid-aaa9eb18-c68b-47f6-b6c0-ba3d36896ce6, .uuid-238b2715-da39-40d1-9a97-ed4f9f5e5d78 {
        fill: #fff;
      }

      .uuid-8bb6991f-effd-4dd2-8d94-2b2e3b67ab91 {
        fill: #ffdd2d;
      }

      .uuid-104effb7-e8dc-4d31-92b7-b3e62c3cd2ad {
        fill: #00402e;
      }
    </style>
  </defs>
  <g>
    <path class="uuid-aaa9eb18-c68b-47f6-b6c0-ba3d36896ce6" d="M294.75,320.18c4.6,0,8.5-3.6,8.8-8.2.6-8.8.9-17.3.9-25.4,0,0-.4-8.4-50.9-8.1-41.2.3-50.9,8.1-50.9,8.1,0,8.1.3,16.6.9,25.4.3,4.6,4.2,8.2,8.8,8.2h82.4Z"/>
    <path class="uuid-238b2715-da39-40d1-9a97-ed4f9f5e5d78" d="M218.32,253.68c-2.06-.2-4.1-2.76-5.67-3.9-4.63-3.4-10.65-3.62-16.2-2.7-5.27,1.98-10.42,4.09-15.34,6.27,2.02.21,4.07.33,6.14.33h31.07Z"/>
    <path class="uuid-238b2715-da39-40d1-9a97-ed4f9f5e5d78" d="M335.4,252.99c-.85.12-1.7.23-2.55.32-3.14-1.44-6.21-2.76-9.1-3.93-9.27-3.54-20.22-4.22-27.2,3.8-.23.21-.45.37-.68.5h30.38c3.11,0,6.16-.25,9.16-.69Z"/>
    <path class="uuid-238b2715-da39-40d1-9a97-ed4f9f5e5d78" d="M366.05,238.78h0c-9.15-5.12-19.21-10.11-29.89-14.82-.92-.53-1.88-1.04-2.86-1.53,0,0-.01,0-.02,0-2.96-1.46-6.16-2.72-9.49-3.68-.05-.02-.09-.04-.14-.06,0,0,0,.01,0,.02,0,0,0,0,0,0-1.35-.39-2.71-.73-4.09-1.01-.02,0-.04,0-.06-.01-2.03-.42-4.09-.73-6.16-.91-.07,0-.13-.01-.2-.02-1.34-.11-2.67-.16-4-.16-.1,0-.2,0-.3,0-.59,0-1.19.02-1.78.05-.07,0-.14,0-.2,0-.65.04-1.3.09-1.95.16-.09,0-.17.02-.26.03-.55.06-1.09.13-1.63.22-.14.02-.28.04-.42.07-1.23.2-2.45.47-3.64.8-.15.04-.3.09-.45.13-.48.14-.96.29-1.43.45-.12.04-.24.08-.36.12-.57.2-1.14.42-1.7.66-.12.05-.24.11-.36.16-.45.2-.89.4-1.33.62-.15.08-.3.15-.46.23-.54.28-1.08.57-1.6.89l-2.7,1.7,3.3,5.5,2.7-1.7c.44-.27.88-.52,1.34-.76.16-.08.33-.15.49-.23.3-.15.61-.3.92-.44.24-.1.49-.19.73-.29.25-.1.49-.2.74-.29.31-.11.63-.2.95-.3.19-.06.38-.13.58-.19.37-.11.76-.2,1.14-.29.15-.04.29-.08.44-.11.42-.09.85-.17,1.28-.25.12-.02.23-.05.35-.07.49-.08.98-.14,1.48-.2.07,0,.13-.02.19-.03.53-.06,1.07-.1,1.61-.13.04,0,.07,0,.11,0,.58-.03,1.16-.05,1.75-.05,0,0,0,0,0,0,4.12-.03,8.5.64,12.9,1.96.01,0,.02,0,.03,0-.35,1.07-.7,2.15-1.05,3.22-.01,0-.03,0-.04,0-4.86-1.19-9.55-1.59-13.9-1.21,0,0-.01,0-.02,0-.62.05-1.23.13-1.83.21,0,0-.02,0-.03,0-.6.09-1.19.19-1.78.31-.03,0-.05.01-.08.02-.57.12-1.13.25-1.68.39-.07.02-.14.04-.21.06-.51.14-1.01.28-1.5.44-.12.04-.24.09-.36.13-.44.15-.87.3-1.29.47-.14.06-.28.12-.42.18-.4.17-.79.33-1.18.52-.25.12-.49.26-.74.38-.27.14-.54.27-.81.42-.29.16-.57.34-.86.52-.21.13-.42.25-.63.38-.48.32-.96.65-1.42,1l-2.6,1.9,3.9,5.1,2.6-1.9c6.89-5.15,15.51-4.95,22.82-3.22-.39,1.13-.78,2.26-1.16,3.4-9.99-1.72-18.3.32-24.76,6.13l-2.4,2.1,4.3,4.8,2.4-2.1c.44-.4.89-.76,1.36-1.11.1-.07.19-.15.29-.22.44-.32.9-.63,1.36-.91.12-.07.23-.14.35-.21.4-.24.81-.46,1.23-.66.11-.05.22-.11.33-.16.45-.21.92-.4,1.38-.58.2-.07.39-.15.59-.22.45-.15.9-.29,1.37-.42.24-.06.49-.12.73-.17.29-.07.58-.12.87-.18.43-.08.87-.15,1.31-.2.27-.03.55-.07.83-.09.34-.03.69-.05,1.04-.07.19,0,.38-.01.57-.02.63-.02,1.27-.01,1.92.02.17,0,.34.02.5.03.83.05,1.68.13,2.54.25,0,0,.01,0,.02,0,0,0,0,.02,0,.03h.1c6.24,1.27,22.86,9.03,22.4,8.8,24,11.7,37.6,21.8,40.4,29.9.6,1.7.9,3.6-.7,6.9-5.2,10.5-34.8,10.2-81.2-10.7-1.5-.71-8.65-4.38-14.7-7.44-7.43,6.44-14.89,12.86-22.3,19.34-2,1.8-3.3,1.9-5.4,0-7.32-6.5-14.74-12.91-22.13-19.34-6.04,3.11-13.29,6.82-14.87,7.54-46.4,20.8-75.9,21.1-81.2,10.7-1.6-3.2-1.3-5.2-.7-6.9,2.9-8.1,16.5-18.2,40.4-30h0s5.93-4.73,22.46-8.73c7.31-.97,13.26.62,17.94,4.83l2.4,2.1,4.3-4.8-2.4-2.1c-6.12-5.5-13.88-7.63-23.15-6.39-.41-1.22-.82-2.43-1.23-3.65,6.91-1.36,14.74-1.16,21.09,3.64l2.6,1.9,3.9-5.1-2.6-1.9c-7.02-5.3-16.55-6.8-27.04-4.61-.36-1.06-.72-2.13-1.08-3.19,9.56-2.56,18.91-1.96,25.52,2.1l2.7,1.7,3.3-5.5-2.7-1.7c-9.06-5.48-20.48-5.6-30.96-2.69l-.04-.11c-.28.12-.56.24-.85.36-4.39,1.29-8.59,3.11-12.36,5.28-10.83,4.72-21.14,9.55-30.29,14.7-20.5,11.9-31.5,22.96-35.8,35.16-3.1,8.7-2.5,18,1.9,26.7,6.9,13.8,21,20.7,40.9,20.7,15.5,0,34.7-4.2,56.6-12.7,3.6-1.4,7.4,1.2,7.4,5v6.4h71.1l.2-8.7c.1-3.8,4-6.4,7.5-4.9,24.3,9.9,45.4,14.9,62.2,14.9,19.9,0,34-6.9,40.9-20.7,4.4-8.7,5-17.9,1.9-26.7-4.3-12.2-15.3-23.1-35.8-35.1Z"/>
    <path class="uuid-238b2715-da39-40d1-9a97-ed4f9f5e5d78" d="M447.25,165.58l.4.3c-3.1-4.3-9.2-5.1-13.6-2.2-12.5,8.4-25.9,15.3-39.9,20.5-3.2,1.2-6.6-.8-7.2-4.1-.7-3.7-1.8-7.4-3.1-10.8-.9-2.3-.2-5,1.8-6.4,1.1-.8,2.2-1.6,3.2-2.3,21.5-15.9,40.4-35,56.3-56.7,3.5-4.8,3.6-11.6-.4-16-5.5-6.1-14.8-5.3-19.4.9-14.5,19.8-31.7,37.2-51.3,51.7-1.8,1.3-3.6,2.6-5.5,3.9-.9.6-2.2.6-3.1-.2-1.4-1.1-2.8-2.2-4.3-3.2-.8-.6-1.1-1.7-.6-2.6,5.2-8.5,10.1-17.9,15.9-29.1,12.5-24.2,21.2-50.2,25.9-77.2,1.2-6.8-3.4-13.2-10.2-14.4-6.8-1.2-13.2,3.4-14.4,10.2-4.2,24.5-12.1,48-23.5,70-6.4,12.5-11.4,22-16.7,30.2-1.1,1.7-3.1,2.7-5.1,2.5-2-.2-4.1-.3-6.3-.3h-139c-2.2,0-4.4.1-6.6.3-2,.2-3.9-.7-5-2.4-5.8-8.5-11.1-18.2-17.4-30.4-11.3-21.9-19.3-45.4-23.5-70-1.3-7.7-9.4-12.5-17-9.4-5.6,2.2-8.5,8.3-7.5,14.2,4.7,26.8,13.4,52.6,25.8,76.7,5.8,11.1,10.8,20.3,16.1,28.6.8,1.2.5,2.9-.7,3.7-1.3,1-2.6,1.9-3.9,3-.9.7-2.1.8-3,.1-2-1.4-4-2.8-6-4.3-19.5-14.4-36.7-31.7-51.1-51.4-3.9-5.3-11.4-7.1-17-3.5-6.1,3.9-7.6,12.1-3.4,17.9,16,21.9,35,41.1,56.6,57.1,1.3,1,2.6,1.9,3.9,2.8,2.1,1.5,2.8,4.1,1.9,6.4-1.3,3.4-2.3,7-3,10.6-.6,3.3-4,5.3-7.2,4.1-14.5-5.3-28.3-12.4-41.1-21.1-4.8-3.2-11.3-1.6-14.1,3.6-2.3,4.5-.6,9.9,3.6,12.7,14.3,9.6,29.7,17.4,45.9,23.3,1.8.6,3.6,1.3,5.4,1.9,1.5.5,3.9,1.2,5.7,1.8,1.7.5,3.1,1.8,3.6,3.5,3.22,10.31,9.07,19.5,16.84,26.75,9.63-5.49,20.82-11.03,33.26-17.05,5.22-2.57,10.93-4.56,16.76-5.61.35-1.65.79-3.31,1.34-4.99,4.4-13.3,13.9-21.6,28.1-24.5,2.4-.6,4.8-.6,5.6-.7,9.8,0,17.1,2.7,23.5,7.7,2.1,1.6,3.5,2.4,6,.4,17.3-13.7,39.4-8.6,50.6,4.5,4.44,5.15,7.22,11.26,8.39,17.6-.16-.03-.32-.05-.49-.08,6.13,1.07,12.18,3.11,17.7,5.78,12.88,5.81,23.28,11.72,32.31,17,7.81-7.27,13.76-16.58,16.99-27.1.5-1.7,1.9-3,3.6-3.6,20-6.1,38.9-15.1,56.2-26.9,4.5-3.1,5.6-9.2,2.4-13.7ZM189.19,149.64c-1.72-.68-3.58-1.07-5.55-1.07s-3.83.39-5.54,1.08c-.1-.41-.16-.84-.16-1.28,0-3.2,2.6-5.7,5.7-5.7s5.7,2.6,5.7,5.7c0,.44-.06.86-.15,1.27ZM310.15,153.68c-15.3,7.9-32.5,14.4-55.6,14.4s-40.3-6.5-55.5-14.4c-2.4-1.2-1.5-4.9,1.2-4.9h108.7c2.7,0,3.6,3.6,1.2,4.9ZM330.99,149.64c-1.72-.68-3.58-1.07-5.55-1.07s-3.83.39-5.54,1.08c-.1-.41-.16-.84-.16-1.28,0-3.2,2.5-5.7,5.7-5.7s5.7,2.6,5.7,5.7c0,.44-.06.86-.15,1.27Z"/>
  </g>
  <g>
    <path class="uuid-104effb7-e8dc-4d31-92b7-b3e62c3cd2ad" d="M254.55,168.08c23.1,0,40.3-6.5,55.6-14.4,2.4-1.3,1.5-4.9-1.2-4.9h-108.7c-2.7,0-3.6,3.7-1.2,4.9,15.2,7.9,32.4,14.4,55.5,14.4h0Z"/>
    <path class="uuid-104effb7-e8dc-4d31-92b7-b3e62c3cd2ad" d="M325.45,148.58c1.96,0,3.83.39,5.55,1.07.1-.41.15-.83.15-1.27,0-3.1-2.5-5.7-5.7-5.7s-5.7,2.5-5.7,5.7c0,.44.06.87.16,1.28,1.72-.69,3.58-1.08,5.54-1.08Z"/>
    <path class="uuid-104effb7-e8dc-4d31-92b7-b3e62c3cd2ad" d="M183.65,148.58c1.96,0,3.83.39,5.55,1.07.1-.41.15-.83.15-1.27,0-3.1-2.5-5.7-5.7-5.7s-5.7,2.5-5.7,5.7c0,.44.06.87.16,1.28,1.72-.69,3.58-1.08,5.54-1.08Z"/>
    <path class="uuid-8bb6991f-effd-4dd2-8d94-2b2e3b67ab91" d="M304.85,247.68c-2.2.7-4.2,1.8-5.9,3.4l-2.4,2.1c-.6.5-1.3.8-2.1.8s-1.7-.3-2.3-1l-4.3-4.8c-.6-.7-.8-1.5-.8-2.3,0-.9.4-1.7,1-2.2l2.4-2.1c.1,0,.2-.1.2-.1l-3.8-5.1c-1.1-1.4-.8-3.4.6-4.4l2.1-1.6c-.1-.2-.2-.3-.3-.5l-3.3-5.5c-.5-.7-.6-1.6-.4-2.4.2-.9.7-1.6,1.4-2l2.7-1.7c5.4-3.3,11.4-5,19.1-5,3.19,0,6.48.31,9.79.9-1.17-6.34-3.95-12.44-8.39-17.6-11.2-13.1-33.3-18.2-50.6-4.5-2.5,2-3.9,1.2-6-.4-6.4-5-13.7-7.7-23.5-7.7-.8.1-3.2.1-5.6.7-14.2,2.9-23.7,11.2-28.1,24.5-.55,1.68-1,3.35-1.34,5.01.02,0,.03,0,.04,0,.7-.1,1.4-.2,2-.3h.2c.3,0,.6-.1.9-.1.6-.1,1.2-.2,1.8-.2.4,0,.9-.1,1.3-.1.6-.1,1.1-.1,1.7-.1h3c.5,0,1,.1,1.5.1s1,.1,1.5.1c.5.1,1,.1,1.5.2.5,0,1,.1,1.5.2s1,.3,1.6.4l.2.1c.3.1.7.2,1.1.3.5.2,1,.3,1.5.5h.1l.3.1c.4.1.7.2,1,.3.5.2,1.1.5,1.6.7l.1.1.3.1c.3.1.5.2.8.3.8.4,1.6.8,2.4,1.3.1.1.2.1.3.2l2.7,1.7c1.5.9,1.9,2.8,1,4.3l-3.3,5.2c-.1.2-.2.4-.3.5l2.1,1.6c1.4,1,1.6,3,.6,4.4l-3.8,5.1.1.1,2.4,2.1c.4.4.7.9.9,1.4,0,.2.1.3.1.4.1,1-.1,2-.8,2.7l-4.3,4.8c-.6.7-1.4,1-2.3,1-.7,0-1.5-.3-2.1-.8l-2.4-2.1c-.4-.4-.8-.7-1.2-1-.1,0-.2-.1-.2-.1l-.2-.1c-.2-.2-.5-.4-.8-.6-.2-.1-.3-.2-.5-.3-.2-.1-.5-.3-.8-.4l-.2-.1c-.1,0-.2-.1-.3-.1-.4-.1-.7-.3-1.1-.4-.3-.1-.5-.2-.8-.3s-.6-.1-.9-.2-.5-.1-.8-.2c-.3,0-.5-.1-.7-.1-.22,0-.44-.05-.67-.07.23.22.43.45.67.67,15.8,14.8,32.5,28.7,48.7,43.1,2.1,1.9,3.4,1.8,5.4,0,15.9-13.9,32-27.5,47.6-41.7.71-.65,1.38-1.33,2.03-2.02-1.45.12-2.84.39-4.13.82h-.1Z"/>
    <path class="uuid-104effb7-e8dc-4d31-92b7-b3e62c3cd2ad" d="M219.35,216.38c-13.18-5.69-28.55-2.78-41.1,3.4-12.44,6.02-23.63,11.56-33.26,17.05.67.63,1.36,1.25,2.06,1.85v.04c9.15-5.15,19.46-9.97,30.29-14.7,3.77-2.17,7.98-3.99,12.36-5.28.28-.12.56-.24.85-.36l.04.11c10.48-2.91,21.9-2.78,30.96,2.69l2.7,1.7-3.3,5.5-2.7-1.7c-6.61-4.06-15.96-4.66-25.52-2.1.36,1.06.72,2.13,1.08,3.19,10.49-2.19,20.02-.69,27.04,4.61l2.6,1.9-3.9,5.1-2.6-1.9c-6.35-4.8-14.18-5-21.09-3.64.41,1.22.82,2.43,1.23,3.65,9.28-1.24,17.04.89,23.15,6.39l2.4,2.1-4.3,4.8-2.4-2.1c-4.68-4.21-10.63-5.79-17.94-4.83-16.53,4-22.46,8.73-22.46,8.73,1.82.33,3.66.6,5.53.78,4.93-2.19,10.09-4.3,15.37-6.28,5.55-.91,11.57-.7,16.2,2.7,1.57,1.13,3.61,3.7,5.67,3.9h.48c.62-.06,1.24-.35,1.85-1,3.7-4.41,8.39-6.8,1.6-11.5,2.78-4.06,7.6-7.48,1.1-11.1.07-.1,3.43-5.45,3.6-5.7,2.36-4.29-4.87-6.43-7.6-8Z"/>
    <path class="uuid-104effb7-e8dc-4d31-92b7-b3e62c3cd2ad" d="M335.75,219.88c-15.44-7.46-35.02-10.08-48.8.1-4.01,2.46,1.47,7.77,2.6,10.4-6.56,3.66-1.68,7,1.1,11.1,0,0-.1.1-.2.1-1.93,1.51-4.92,3.97-2.6,6.6,1.38,1.2,3.33,4.44,5.47,5.5h2.55c.23-.13.45-.29.68-.5,6.98-8.02,17.93-7.34,27.2-3.8,2.9,1.17,5.96,2.49,9.1,3.93,1.72-.18,3.42-.42,5.1-.73.46.23-16.16-7.53-22.4-8.8h-.1s0-.02,0-.03c-7.63-1.06-13.8.6-18.61,4.93l-2.4,2.1-4.3-4.8,2.4-2.1c6.46-5.81,14.77-7.84,24.76-6.13.39-1.13.78-2.26,1.16-3.4-7.31-1.73-15.93-1.93-22.82,3.22l-2.6,1.9-3.9-5.1,2.6-1.9c7.4-5.58,17.63-6.96,28.77-4.23.35-1.07.7-2.15,1.05-3.22-10.08-3.04-20.07-2.62-27.03,1.65l-2.7,1.7-3.3-5.5,2.7-1.7c9.38-5.67,21.55-5.6,32.39-2.48,0,0,0-.01,0-.02.05.02.09.04.14.06,4.44,1.29,8.66,3.09,12.37,5.22,10.67,4.71,20.74,9.7,29.89,14.81.7-.61,1.38-1.23,2.05-1.87-9.04-5.29-19.45-11.2-32.35-17.02Z"/>
  </g>
</svg>