<?xml version="1.0" encoding="UTF-8"?>
<svg id="uuid-3c47575b-f4f2-4483-8df0-222ab65f607d" data-name="3" xmlns="http://www.w3.org/2000/svg" viewBox="0 0 512 338.7">
  <defs>
    <style>
      .uuid-a22cdbe1-d196-47e2-9e44-2e1d06b54938 {
        isolation: isolate;
        opacity: .79;
      }

      .uuid-a22cdbe1-d196-47e2-9e44-2e1d06b54938, .uuid-46c0bbbb-7a15-4550-bb2f-66460de7f288 {
        fill: #fff;
        stroke-width: 0px;
      }
    </style>
  </defs>
  <path class="uuid-a22cdbe1-d196-47e2-9e44-2e1d06b54938" d="M290.85,328.36c5.3,0,9.7-4.2,9.9-9.6.6-15.8.8-31.2.8-45.7,0,0,.2-19.1-46.1-19.1s-46.1,19.1-46.1,19.1c0,14.5.3,29.9.8,45.7.2,5.3,4.6,9.6,9.9,9.6h70.8Z"/>
  <path class="uuid-46c0bbbb-7a15-4550-bb2f-66460de7f288" d="M477.65,136.56l-.7,2.3c-2.5,8.7-5.6,17.1-9.3,25.3l-2.4-.9c4.4-9.6,7.7-19.6,9.9-29.8l.5-2.4-4.8-1-.5,2.4c-2.1,10-5.3,19.8-9.6,29.1l-2.3-.9c5-10.8,8.5-22.1,10.3-33.9l.4-2.4-4.8-.8-.4,2.4c-1.5,9.6-4.1,18.9-7.7,27.8-1.9-4.3-5.1-8-9.2-10.5l-2.1-1.3-2.5,4.2,2.1,1.3c4.3,2.6,7.4,7.1,8.5,12-5.7,14.3-34,76.4-99.7,94.8-21.3,6-44.5,6.6-67.3,1.9v-.1c-6.7-1.7-12.3-3.5-16.3-4.8-3.2-1.1-5.3-4.1-5.3-7.5v-8.4c0-1.3,1.2-2.3,2.5-2.3h52.2c25.9,0,47.7-17.6,53.9-41.6.2-.8.9-1.5,1.7-1.8,18.2-5.5,35.3-13.6,51.1-24.2,3.4-2.3,4.7-6.8,2.7-10.4-2.3-4.1-7.5-5.3-11.3-2.7-12.3,8.3-25.6,15-39.5,19.9-1.5.5-3.1-.5-3.3-2.1-.8-6.4-2.7-12.5-5.5-18,2-1.4,4-2.8,5.9-4.3,19.3-14.3,36.4-31.5,50.7-51,3.1-4.2,2.8-10.1-1-13.6-4.5-4.2-11.5-3.4-15,1.4-13.2,18-28.8,33.9-46.6,47-1.5,1.1-3,2.2-4.5,3.2-1,.7-2.2.6-3.1-.2-2.9-2.5-6.1-4.7-9.6-6.6-1.3-.7-1.7-2.4-.8-3.7,6.4-9.2,11.8-19.6,18.5-32.7,11.2-21.6,19-44.8,23.2-69,.9-5.1-1.9-10.3-6.9-11.8-5.9-1.8-11.9,2-12.9,7.9-3.8,22.3-11,43.7-21.3,63.6-8.6,16.7-14.3,27.7-22.5,37.4-.1.2-.3.3-.4.5-.5.7-1.3,1-2.1,1h-128.8c-.8,0-1.6-.3-2.1-1-.1-.2-.3-.3-.4-.5-8.5-10.1-14.9-21.4-23.2-37.4-10.3-19.8-17.4-41.2-21.3-63.4-.8-4.6-4.5-8.3-9.2-8.6-6.8-.4-11.7,5.5-10.7,11.8,4.2,24.3,12,47.7,23.3,69.4,6.8,13.2,12.6,23.5,19.2,32.8.9,1.2.5,3-.8,3.7-3.5,1.9-6.8,4.2-9.8,6.8-.9.8-2.2.9-3.1.2-1.7-1.2-3.4-2.4-5-3.6-17.8-13.2-33.5-29-46.6-47-3.5-4.8-10.5-5.6-15-1.4-3.8,3.5-4,9.4-1,13.6,14.3,19.5,31.4,36.7,50.7,51,1.6,1.2,3.2,2.3,4.9,3.5,1,.7,1.4,2,.9,3.2-2.2,5-3.7,10.3-4.4,15.9-.2,1.6-1.8,2.6-3.3,2.1-14.3-4.9-27.8-11.7-40.4-20.2-3.8-2.6-9-1.4-11.3,2.7-2,3.6-.7,8.1,2.7,10.4,16,10.8,33.5,19.1,52,24.5.9.2,1.5.9,1.7,1.8,6.4,23.8,28.1,41.3,53.9,41.3h51.2c1.3,0,2.5,1,2.5,2.4v8.1c0,3.3-2.1,6.3-5.2,7.4-2.7,1-6,2-9.7,3v-.1c-9.8,2.5-39.7,9.9-73.4.4-66-18.6-94.3-81.3-99.8-95.1,1.3-4.6,4.2-8.7,8.3-11.1l2.1-1.3-2.5-4.2-2.1,1.3c-4,2.4-7.2,6.2-9.1,10.5-3.7-8.9-6.3-18.2-7.8-27.8l-.4-2.4-4.8.8.4,2.4c1.8,11.6,5.3,22.8,10.2,33.5l-2.3.9c-4.2-9.2-7.4-18.9-9.5-28.8l-.5-2.4-4.8,1,.5,2.4c2.2,10.2,5.4,20.1,9.7,29.6l-2.3.9c-3.6-8.1-6.7-16.4-9.1-25l-.7-2.3-4.7,1.3.7,2.3c2.8,9.5,6.3,18.8,10.3,27.7,7.6,18.4,39.8,85.1,112.6,105.5,14.5,4.1,28.2,5.5,40.3,5.5,10.1,0,19-.9,26.3-2.1,1.5-.2,2.8.8,2.9,2.3.1,1.1.1,1.9.1,2l.1,46.8h64.8l.5-46.9c0-.1,0-.7.1-1.3.1-1.5,1.4-2.5,2.9-2.3,8.2,1.2,16.4,1.8,24.6,1.8,14.6,0,28.9-1.9,42.7-5.8,70-19.6,102.4-82,111.6-103.2l.2-.5c4.6-9.6,8.4-19.6,11.3-29.8l.7-2.3-4.7-1.4ZM320.25,133.66c2.8,0,5.1,2.3,5.1,5.1s-2.3,5.1-5.1,5.1-5.2-2.3-5.1-5.1c0-2.8,2.3-5.1,5.1-5.1ZM191.65,143.86c-2.8,0-5.1-2.3-5.1-5.1s2.3-5.1,5.1-5.1,5.1,2.3,5.1,5.1-2.3,5.1-5.1,5.1ZM255.95,157.06c-2.6,0-4.7-4.1-4.7-9.1s2.1-9.1,4.7-9.1,4.7,4.1,4.7,9.1-2.1,9.1-4.7,9.1Z"/>
</svg>