<?xml version="1.0" encoding="UTF-8"?>
<svg id="uuid-91ba3b87-17cf-4e6f-93bf-eb772b8bb857" data-name="5" xmlns="http://www.w3.org/2000/svg" viewBox="0 0 512 338.7">
  <defs>
    <style>
      .uuid-850be579-58ab-4ab2-9021-ff3bb9685f86 {
        fill: #fff;
        stroke-width: 0px;
      }
    </style>
  </defs>
  <path class="uuid-850be579-58ab-4ab2-9021-ff3bb9685f86" d="M437.35,190.26c-.1-.1-.3-.1-.4-.1-.2-.1-.4-.1-.6-.2-.3-.1-.6-.1-.8-.2h-135.8c-4.6,0-8.9,2.7-10.9,6.8l-5.5,11.2s-9.7,20.6-14.9,31.2c-6.3,12.9-12.9,26.2-18.3,37.3l-.4.9-65.4-.1h-26.9v5.6c0,9.5,6.8,17.3,15.7,19,1.3.3,2.7.4,4.1.4h59.7v.1h132.2c14.3,0,27.4-8.2,33.8-21l38.8-79.1c2.3-4.8,0-10-4.4-11.8ZM362.45,246.36c-1.6,7.4-8.7,13.2-16.2,13.2-3.8,0-7.1-1.4-9.3-4.1-2.2-2.6-3.1-6-2.5-9.6,1.2-7.6,8.6-13.8,16.3-13.8,3.9,0,7.2,1.5,9.5,4.2,2.2,2.7,3,6.3,2.2,10.1Z"/>
  <path class="uuid-850be579-58ab-4ab2-9021-ff3bb9685f86" d="M350.85,235.26c-6.2,0-12.2,5.1-13.2,11.1-.4,2.7.2,5.2,1.8,7.1,1.6,1.9,4.1,3,6.9,3,6,0,11.9-4.8,13.1-10.6.6-2.8,0-5.5-1.6-7.5-1.6-2-4.1-3.1-7-3.1Z"/>
  <path class="uuid-850be579-58ab-4ab2-9021-ff3bb9685f86" d="M317.95,115.36c-32.2-45.7-81.5-67.5-122.8-54.1-15.2,4.9-29.1,14.9-40.4,28.9l-2.3.7c-.8-.2-1.5-.5-2.3-.7-.2-.1-.4-.1-.6-.2-2.5-.7-5.1-1.2-7.6-1.6-.2,0-.3-.1-.5-.1-.4,0-.8-.1-1.3-.1-1.3-.2-2.2-1.5-1.8-2.8.2-.6.4-1.2.6-1.7,6-14.6,20.1-24.7,36-25.9,5.9-.4,10.7-5.1,10.6-11-.1-6.2-5.4-11-11.5-10.6-24.3,1.5-46,17-55.1,39.3-1.9,4.6-3.2,9.3-3.9,14-.1.8-.6,1.4-1.4,1.6-6.2,2.2-12.1,5.4-17.4,9.6-1.4,1.1-3.5.1-3.5-1.7.1-2.1.3-4.3.8-6.6,3.7-19.5,18.1-30.1,22.5-32.9,3.9-2.5,5-7.6,2.5-11.4s-7.6-5-11.4-2.5c-5.8,3.7-25,17.7-29.9,43.8-2.2,11.8-.8,22.5,2,31.3l-.1,1.5c-.1.3-.2.5-.4.8-.1.3-.3.6-.4.9-.2.5-.4,1-.6,1.5-.1.3-.3.6-.4.9-.2.5-.4,1-.6,1.5-.1.3-.2.6-.3.9-.2.5-.3,1-.5,1.6,0,.1-.1.3-.1.4-.3,1.1-.6,2.2-.9,3.4-.1.3-.1.6-.2.9-.1.5-.2,1-.3,1.5-.1.4-.1.7-.2,1.1-.1.5-.2,1-.2,1.5,0,.4-.1.7-.1,1.1-.1.5-.1,1-.2,1.5,0,.4-.1.8-.1,1.1-.1.9-.1,1.8-.2,2.6v3.8c0,.5,0,.9.1,1.4,0,.4,0,.9.1,1.3,0,.4.1.9.1,1.3,0,.5.1.9.2,1.4,0,.4.1.8.1,1.2.1.8.2,1.6.4,2.4.1.4.1.7.2,1,.1.5.2,1,.3,1.6.1.4.2.8.3,1.2.1.5.3,1,.4,1.4s.2.8.3,1.1c.1.5.3,1,.5,1.5.1.4.2.7.3,1,.2.7.5,1.3.7,1.9.1.2.2.5.3.7.3.8.6,1.5,1,2.3.1.3.3.6.4.9.2.5.5,1.1.8,1.6.2.3.3.6.5.9.3.5.5,1,.8,1.5.2.3.3.6.5.9.3.6.7,1.1,1,1.7.1.2.3.4.4.7.5.8,1,1.5,1.5,2.2.1.2.3.4.4.6.4.6.8,1.1,1.2,1.7.2.2.4.5.6.8.4.5.8.9,1.2,1.4.2.2.5.5.7.8.4.5.9.9,1.3,1.4.2.2.4.4.6.7.6.7,1.3,1.3,2,2l38.2,35.5c.8.7.9,1.8.3,2.7s-1,1.7-1.6,2.5c-2.1,3.5-4,7.1-5.7,10.8-.5,1.1-1.8,1.6-2.9,1l-4.4-2.3c-9.4-5-21.1-1.4-26.1,8l-19.9,37.4c-2.7,5.1-.6,11.1,3.9,13.7,1.6,1,3.4,1.6,5.5,1.6h16.4v-35.6h3.2v35.6h19.9v-35.6h3.2v35.6h13.2c3.9,0,7.4-2.1,9.1-5.5l7.5-14.2c5-9.4,1.4-21.1-8-26.1l-.7-.4c-.7-.6-.9-1.6-.6-2.4.9-2,2.4-5.1,3.6-7.4.8-1.5,2.8-1.9,4.1-.7l30.1,27.9,66.8.1c5.3-10.8,11.7-23.9,17.9-36.4,5.5-11.1,10.8-22.7,15.7-32.8-.6-.9-1.3-1.8-2-2.6-.9-1.2-2-2.3-3-3.4l-.1-.1c-.9-.9-1.8-1.9-2.7-2.7l-74.3-68.9s-18.4-17.1-24.5-22.7c-1.1-1-1.2-2.7-.2-3.8,8-8.9,17.3-15.3,27.2-18.6,31.7-10.2,72.2,8.7,98.4,46,2.1,3,5.5,4.6,8.9,4.6,2.1,0,4.3-.6,6.2-2,5-3.4,6.2-10.2,2.7-15.1ZM246.45,209.46c.3,1.2.8,2.4,1.3,3.5,2.9,6.2,8.3,9.6,12.3,11.4l-1.2,2.8c-4.5-2-10.6-5.9-13.9-12.9-.6-1.3-1.1-2.6-1.5-4l3-.8ZM194.85,179.26c3-2.4,8.3-.5,12.4,4.5,4,5,4.8,10.6,1.8,13-1,.7-2,1.1-3.2,1.1-2.9,0-6.4-2-9.2-5.6-4-5-4.8-10.6-1.8-13ZM161.85,134.56c-1.4-.3-2.8-.7-4.1-1.2-7.2-2.8-11.6-8.5-13.9-12.9l2.8-1.5c2.1,3.9,5.9,9,12.3,11.4,1.1.4,2.3.8,3.6,1l-.7,3.2Z"/>
</svg>