<?xml version="1.0" encoding="UTF-8"?>
<svg id="uuid-1b42f547-7b43-44c2-a33b-b91187e78ec0" data-name="15" xmlns="http://www.w3.org/2000/svg" viewBox="0 0 512 338.7">
  <defs>
    <style>
      .uuid-a912f44b-dd2c-4d66-bf46-82fe1c679810 {
        isolation: isolate;
        opacity: .79;
      }

      .uuid-a912f44b-dd2c-4d66-bf46-82fe1c679810, .uuid-d35de18a-a8f7-44a1-9956-b0e937bd49f4, .uuid-41c5f1e7-4221-4b28-87d9-50e5a9d6c345 {
        stroke-width: 0px;
      }

      .uuid-a912f44b-dd2c-4d66-bf46-82fe1c679810, .uuid-41c5f1e7-4221-4b28-87d9-50e5a9d6c345 {
        fill: #fff;
      }

      .uuid-d35de18a-a8f7-44a1-9956-b0e937bd49f4 {
        fill: #949597;
      }
    </style>
  </defs>
  <g>
    <path class="uuid-a912f44b-dd2c-4d66-bf46-82fe1c679810" d="M290.9,325.67c5.3,0,9.7-4.2,9.8-9.5.6-15.8.8-31.2.8-45.7,0,0,.2-19.1-46-19.1s-46,19.1-46,19.1c0,14.5.3,29.9.8,45.7.2,5.3,4.5,9.5,9.8,9.5h70.8Z"/>
    <path class="uuid-41c5f1e7-4221-4b28-87d9-50e5a9d6c345" d="M448.3,180.97c-1.46-.92-3.21-.83-4.49.07.38-1.52-.23-3.15-1.61-4.07-1.4-.93-3.21-.89-4.52.02.34-1.54-.21-3.2-1.58-4.12-1.8-1.2-4.3-.8-5.5,1l-2.56,3.7c-1.83.16-3.39.77-4.54,1.8-3.14,2.85-2.52,8.11-1.84,11.13-15.87,21-50.23,56.83-102.56,62.36-22.03,2.3-37.32-.72-50.18-4.85-1.65-.94-2.72-2.72-2.72-4.65v-7.4c0-3,2.4-5.4,5.4-5.4h47.1c24.3,0,45-15.6,52.5-37.3.5-1.5,1.7-2.6,3.2-3.2,1.1-.4,2.3-.9,3.4-1.4,26.4-11.2,41.8-30.1,48.8-40.5,2.3-3.4,1.8-8.1-1.5-10.7-3.6-2.9-8.9-2-11.4,1.8-5,7.6-15.3,20.5-32.3,30.2-3.2,1.8-7.3-.1-7.9-3.7-.5-2.8-1.1-5.5-2-8-.7-2.1,0-4.5,1.7-5.9,2.4-1.9,4.7-3.8,7-5.9,22.5-20.4,33-44.2,37.8-60.5,1.6-5.3-1.5-10.9-6.8-12.5s-10.9,1.5-12.5,6.8c-4.1,13.9-13,34.1-32,51.3-1.2,1.1-2.4,2.1-3.6,3.1-2.1,1.7-5,1.5-7-.3-1.4-1.3-2.8-2.5-4.3-3.6-2.5-1.8-2.9-5.3-.9-7.7,6.9-8.3,13.8-19.5,17.8-33.8,9.3-32.5-2.1-60-7.5-70.4-2.5-4.9-8.6-6.9-13.5-4.3-4.9,2.5-6.9,8.6-4.3,13.5,4.2,8.2,13.3,30.1,6,55.7-4.7,16.5-14.3,27.9-21.5,34.5q-.1.1-.2.2c-1.1,1.1-2.7,1.7-4.3,1.6s-3.2-.2-4.9-.2h-125.3c-1.6,0-3.3.1-4.9.2s-3.1-.5-4.3-1.6q-.1-.1-.2-.2c-7.2-6.6-16.8-17.9-21.5-34.5-7.3-25.6,1.8-47.4,6-55.7,2.5-4.9.6-11-4.3-13.5s-11-.6-13.5,4.3c-5.3,10.3-16.7,37.9-7.5,70.4,4.1,14.3,11,25.5,17.8,33.8,1.9,2.4,1.5,5.9-.9,7.7-1.5,1.1-2.9,2.3-4.3,3.6-2,1.8-4.9,1.9-7,.3-1.2-1-2.4-2-3.6-3.1-18.9-17.1-27.8-37-31.9-50.9-1.6-5.2-6.9-8.6-12.2-7.3-5.3,1.4-8.7,7.1-7.1,12.6,4.8,16.4,15.3,40.1,37.8,60.5,2.3,2.1,4.6,4,7,5.9,1.8,1.4,2.4,3.7,1.7,5.9-.8,2.6-1.5,5.3-2,8-.6,3.6-4.7,5.5-7.9,3.7-16.8-9.5-27.1-22.3-32.1-29.9-2.2-3.4-6.7-4.8-10.3-2.9-4.2,2.2-5.5,7.4-2.9,11.2,6.9,10.4,22.3,29.5,49,40.8,1.1.5,2.3.9,3.4,1.4,1.5.6,2.6,1.7,3.2,3.2,7.6,21.7,28.2,37.3,52.5,37.3h47.1c3,0,5.4,2.4,5.4,5.4v7.4c0,2.3-1.5,4.4-3.7,5.1-12.6,4-27.7,6.8-49.2,4.5-52.28-5.53-86.62-41.29-102.51-62.24v-.06c.71-3,1.41-8.4-1.79-11.3-1.14-1.03-2.71-1.64-4.54-1.8l-2.56-3.7c-1.3-1.8-3.7-2.2-5.5-1-1.5,1.08-2.01,2.93-1.45,4.55-1.29-1.23-3.29-1.39-4.85-.35-1.35.9-1.91,2.48-1.6,3.98-1.3-.82-2.97-.87-4.3.02-1.8,1.3-2.3,3.7-1.1,5.5,1,1.42,1.94,2.83,2.92,4.19h-.02c.28.46.59.94.92,1.43l1.02,1.02c.2.3,1.7,1.7,3.5.5,1.8-1.2,1.7-2.8,1.7-2.9-.1-.6.1-1.2.6-1.5.4-.3,1.1-.4,1.6-.1.2.1,1.4.6,3.1-.6,1.2-.9,1-2.3.9-2.8s.1-1,.5-1.4c.3-.4.9-.5,1.4-.4l6.7,1.5-.7,3.1-4.8-1c-.2,1.3-.8,2.6-2.2,3.6-1.6,1.1-3.1,1.5-4.3,1.4-.3,1.2-1.1,2.7-2.8,3.8-.92.59-1.84.88-2.7.96,15.63,22.16,55.85,68.99,120.76,75.9,6,.7,11.7.9,16.9.9,3.1,0,6.1-.1,9-.3,3.1-.2,5.7,2.3,5.7,5.4v46.5h65.3v-46.7c0-3.1,2.7-5.6,5.8-5.4,3.5.3,7.1.4,11,.4,5.3,0,10.9-.3,16.9-.9,63.24-6.73,103.05-51.36,119.51-74.15-.83-.1-1.72-.39-2.6-.95-1.7-1.1-2.5-2.6-2.8-3.8-1.2,0-2.7-.3-4.3-1.4-1.4-1-2-2.3-2.2-3.6l-4.8,1-.7-3.1,6.7-1.5c.5-.1,1.1,0,1.4.4.4.4.5.9.5,1.4-.1.5-.3,1.9.9,2.8,1.7,1.2,2.9.7,3.1.6.5-.3,1.2-.2,1.6.1.5.4.7.9.6,1.5,0,.1-.1,1.7,1.7,2.9,1.8,1.2,3.3-.2,3.5-.5l.99-.99c.79-1.18,1.5-2.26,2.1-3.21h-.02c.98-1.37,1.92-2.78,2.92-4.2,1.2-1.9.7-4.3-1.1-5.5ZM315.59,133.37h8.03c.67.86,1.09,1.93,1.09,3.1,0,2.8-2.3,5.1-5.1,5.1s-5.1-2.3-5.1-5.1c0-1.17.42-2.24,1.09-3.1ZM191.5,141.57c-2.8,0-5.1-2.3-5.1-5.1,0-1.17.42-2.24,1.09-3.1h8.03c.67.86,1.09,1.93,1.09,3.1,0,2.8-2.3,5.1-5.1,5.1ZM256.7,155.67l-15.2-13-4.5,12.5-3-1.1,6.1-16.8,15.7,13.5,7.8-14.3,16.4,10.2-1.7,2.7-13.6-8.5-8,14.8Z"/>
  </g>
  <g>
    <path class="uuid-d35de18a-a8f7-44a1-9956-b0e937bd49f4" d="M256.7,155.67l-15.2-13-4.5,12.5-3-1.1,6.1-16.8,15.7,13.5,7.8-14.3,16.4,10.2-1.7,2.7-13.6-8.5-8,14.8Z"/>
    <path class="uuid-d35de18a-a8f7-44a1-9956-b0e937bd49f4" d="M315.59,133.37c-.67.86-1.09,1.93-1.09,3.1,0,2.8,2.3,5.1,5.1,5.1s5.1-2.3,5.1-5.1c0-1.17-.42-2.24-1.09-3.1h-8.03Z"/>
    <path class="uuid-d35de18a-a8f7-44a1-9956-b0e937bd49f4" d="M187.49,133.37c-.67.86-1.09,1.93-1.09,3.1,0,2.8,2.3,5.1,5.1,5.1s5.1-2.3,5.1-5.1c0-1.17-.42-2.24-1.09-3.1h-8.03Z"/>
    <path class="uuid-d35de18a-a8f7-44a1-9956-b0e937bd49f4" d="M443.41,194.87c-.2.3-1.7,1.7-3.5.5-1.8-1.2-1.7-2.8-1.7-2.9.1-.6-.1-1.1-.6-1.5-.4-.3-1.1-.4-1.6-.1-.2.1-1.4.6-3.1-.6-1.2-.9-1-2.3-.9-2.8,0-.5-.1-1-.5-1.4-.3-.4-.9-.5-1.4-.4l-6.7,1.5.7,3.1,4.8-1c.2,1.3.8,2.6,2.2,3.6,1.6,1.1,3.1,1.4,4.3,1.4.3,1.2,1.1,2.7,2.8,3.8.89.56,1.77.86,2.6.95,1.36-1.88,2.55-3.6,3.59-5.15l-.99.99Z"/>
    <path class="uuid-d35de18a-a8f7-44a1-9956-b0e937bd49f4" d="M69.94,197.37c.86-.08,1.78-.38,2.7-.96,1.7-1.1,2.5-2.6,2.8-3.8,1.2.1,2.7-.3,4.3-1.4,1.4-1,2-2.3,2.2-3.6l4.8,1,.7-3.1-6.7-1.5c-.5-.1-1.1,0-1.4.4-.4.4-.6.9-.5,1.4s.3,1.9-.9,2.8c-1.7,1.2-2.9.7-3.1.6-.5-.3-1.2-.2-1.6.1-.5.3-.7.9-.6,1.5,0,.1.1,1.7-1.7,2.9-1.8,1.2-3.3-.2-3.5-.5l-1.02-1.02c.99,1.51,2.16,3.25,3.52,5.18Z"/>
  </g>
</svg>